<mxfile host="app.diagrams.net" modified="2023-03-30T06:38:06.659Z" agent="Mozilla/5.0 (X11; Linux x86_64) AppleWebKit/537.36 (KHTML, like Gecko) Chrome/109.0.0.0 Safari/537.36" etag="VrYDQUvZyjGG1ux4H_uY" version="21.1.1" type="device">
  <diagram name="페이지-1" id="P8X3MTgk2YeF2idY-879">
    <mxGraphModel dx="477" dy="957" grid="0" gridSize="10" guides="1" tooltips="1" connect="1" arrows="1" fold="1" page="1" pageScale="1" pageWidth="827" pageHeight="1169" math="0" shadow="0">
      <root>
        <mxCell id="0" />
        <mxCell id="1" parent="0" />
        <mxCell id="Wy4BCRka2XQ0IbTexJsx-1" value="default" style="ellipse;whiteSpace=wrap;html=1;aspect=fixed;fillColor=#C0FCC6;" parent="1" vertex="1">
          <mxGeometry x="200" y="520" width="80" height="80" as="geometry" />
        </mxCell>
        <mxCell id="Wy4BCRka2XQ0IbTexJsx-3" value="create arc 3" style="ellipse;whiteSpace=wrap;html=1;aspect=fixed;fontSize=10;" parent="1" vertex="1">
          <mxGeometry x="180" y="660" width="40" height="40" as="geometry" />
        </mxCell>
        <mxCell id="Wy4BCRka2XQ0IbTexJsx-11" value="create arc 1" style="ellipse;whiteSpace=wrap;html=1;aspect=fixed;fontSize=10;" parent="1" vertex="1">
          <mxGeometry x="70" y="570" width="40" height="40" as="geometry" />
        </mxCell>
        <mxCell id="Wy4BCRka2XQ0IbTexJsx-12" value="" style="endArrow=classic;html=1;rounded=0;exitX=0.047;exitY=0.735;exitDx=0;exitDy=0;entryX=1;entryY=0.5;entryDx=0;entryDy=0;exitPerimeter=0;" parent="1" source="Wy4BCRka2XQ0IbTexJsx-1" target="Wy4BCRka2XQ0IbTexJsx-11" edge="1">
          <mxGeometry width="50" height="50" relative="1" as="geometry">
            <mxPoint x="450" y="570" as="sourcePoint" />
            <mxPoint x="530" y="570" as="targetPoint" />
          </mxGeometry>
        </mxCell>
        <mxCell id="Wy4BCRka2XQ0IbTexJsx-13" value="a" style="edgeLabel;html=1;align=center;verticalAlign=middle;resizable=0;points=[];" parent="Wy4BCRka2XQ0IbTexJsx-12" vertex="1" connectable="0">
          <mxGeometry x="0.1595" y="-1" relative="1" as="geometry">
            <mxPoint x="-6" y="-1" as="offset" />
          </mxGeometry>
        </mxCell>
        <mxCell id="Wy4BCRka2XQ0IbTexJsx-14" value="create arc 2" style="ellipse;whiteSpace=wrap;html=1;aspect=fixed;fontSize=10;" parent="1" vertex="1">
          <mxGeometry x="70" y="660" width="40" height="40" as="geometry" />
        </mxCell>
        <mxCell id="Wy4BCRka2XQ0IbTexJsx-15" value="" style="endArrow=classic;html=1;rounded=0;exitX=0.496;exitY=1.046;exitDx=0;exitDy=0;entryX=0.454;entryY=0.025;entryDx=0;entryDy=0;entryPerimeter=0;exitPerimeter=0;" parent="1" source="Wy4BCRka2XQ0IbTexJsx-11" target="Wy4BCRka2XQ0IbTexJsx-14" edge="1">
          <mxGeometry width="50" height="50" relative="1" as="geometry">
            <mxPoint x="290" y="570" as="sourcePoint" />
            <mxPoint x="370" y="570" as="targetPoint" />
          </mxGeometry>
        </mxCell>
        <mxCell id="Wy4BCRka2XQ0IbTexJsx-16" value="click" style="edgeLabel;html=1;align=center;verticalAlign=middle;resizable=0;points=[];" parent="Wy4BCRka2XQ0IbTexJsx-15" vertex="1" connectable="0">
          <mxGeometry x="0.1524" relative="1" as="geometry">
            <mxPoint x="1" y="-7" as="offset" />
          </mxGeometry>
        </mxCell>
        <mxCell id="Wy4BCRka2XQ0IbTexJsx-17" value="" style="endArrow=classic;html=1;rounded=0;exitX=1;exitY=0.5;exitDx=0;exitDy=0;entryX=0;entryY=0.5;entryDx=0;entryDy=0;" parent="1" source="Wy4BCRka2XQ0IbTexJsx-14" target="Wy4BCRka2XQ0IbTexJsx-3" edge="1">
          <mxGeometry width="50" height="50" relative="1" as="geometry">
            <mxPoint x="270" y="690" as="sourcePoint" />
            <mxPoint x="310" y="690" as="targetPoint" />
          </mxGeometry>
        </mxCell>
        <mxCell id="Wy4BCRka2XQ0IbTexJsx-18" value="click" style="edgeLabel;html=1;align=center;verticalAlign=middle;resizable=0;points=[];" parent="Wy4BCRka2XQ0IbTexJsx-17" vertex="1" connectable="0">
          <mxGeometry x="0.1524" relative="1" as="geometry">
            <mxPoint x="-6" y="2" as="offset" />
          </mxGeometry>
        </mxCell>
        <mxCell id="Wy4BCRka2XQ0IbTexJsx-19" value="" style="endArrow=classic;html=1;rounded=0;exitX=0.5;exitY=0;exitDx=0;exitDy=0;entryX=0.274;entryY=0.95;entryDx=0;entryDy=0;entryPerimeter=0;" parent="1" source="Wy4BCRka2XQ0IbTexJsx-3" target="Wy4BCRka2XQ0IbTexJsx-1" edge="1">
          <mxGeometry width="50" height="50" relative="1" as="geometry">
            <mxPoint x="350" y="690" as="sourcePoint" />
            <mxPoint x="390" y="690" as="targetPoint" />
          </mxGeometry>
        </mxCell>
        <mxCell id="Wy4BCRka2XQ0IbTexJsx-20" value="click" style="edgeLabel;html=1;align=center;verticalAlign=middle;resizable=0;points=[];" parent="Wy4BCRka2XQ0IbTexJsx-19" vertex="1" connectable="0">
          <mxGeometry x="0.1524" relative="1" as="geometry">
            <mxPoint x="-6" as="offset" />
          </mxGeometry>
        </mxCell>
        <mxCell id="Wy4BCRka2XQ0IbTexJsx-26" value="create line 1" style="ellipse;whiteSpace=wrap;html=1;aspect=fixed;fontSize=10;" parent="1" vertex="1">
          <mxGeometry x="110" y="470" width="40" height="40" as="geometry" />
        </mxCell>
        <mxCell id="Wy4BCRka2XQ0IbTexJsx-28" value="create line 2" style="ellipse;whiteSpace=wrap;html=1;aspect=fixed;fontSize=10;" parent="1" vertex="1">
          <mxGeometry x="190" y="440" width="40" height="40" as="geometry" />
        </mxCell>
        <mxCell id="Wy4BCRka2XQ0IbTexJsx-29" value="" style="endArrow=classic;html=1;rounded=0;exitX=0.982;exitY=0.261;exitDx=0;exitDy=0;entryX=0;entryY=0.5;entryDx=0;entryDy=0;exitPerimeter=0;" parent="1" source="Wy4BCRka2XQ0IbTexJsx-26" target="Wy4BCRka2XQ0IbTexJsx-28" edge="1">
          <mxGeometry width="50" height="50" relative="1" as="geometry">
            <mxPoint x="396" y="484" as="sourcePoint" />
            <mxPoint x="278" y="542" as="targetPoint" />
          </mxGeometry>
        </mxCell>
        <mxCell id="Wy4BCRka2XQ0IbTexJsx-30" value="click" style="edgeLabel;html=1;align=center;verticalAlign=middle;resizable=0;points=[];" parent="Wy4BCRka2XQ0IbTexJsx-29" vertex="1" connectable="0">
          <mxGeometry x="0.1524" relative="1" as="geometry">
            <mxPoint x="-6" as="offset" />
          </mxGeometry>
        </mxCell>
        <mxCell id="Wy4BCRka2XQ0IbTexJsx-31" value="" style="endArrow=classic;html=1;rounded=0;exitX=0.558;exitY=0.997;exitDx=0;exitDy=0;entryX=0.238;entryY=0.065;entryDx=0;entryDy=0;exitPerimeter=0;entryPerimeter=0;" parent="1" source="Wy4BCRka2XQ0IbTexJsx-28" target="Wy4BCRka2XQ0IbTexJsx-1" edge="1">
          <mxGeometry width="50" height="50" relative="1" as="geometry">
            <mxPoint x="396" y="484" as="sourcePoint" />
            <mxPoint x="278" y="542" as="targetPoint" />
          </mxGeometry>
        </mxCell>
        <mxCell id="Wy4BCRka2XQ0IbTexJsx-32" value="click" style="edgeLabel;html=1;align=center;verticalAlign=middle;resizable=0;points=[];" parent="Wy4BCRka2XQ0IbTexJsx-31" vertex="1" connectable="0">
          <mxGeometry x="0.1524" relative="1" as="geometry">
            <mxPoint x="-6" y="-6" as="offset" />
          </mxGeometry>
        </mxCell>
        <mxCell id="Wy4BCRka2XQ0IbTexJsx-33" value="" style="endArrow=classic;html=1;rounded=0;exitX=0.008;exitY=0.325;exitDx=0;exitDy=0;entryX=0.836;entryY=0.935;entryDx=0;entryDy=0;entryPerimeter=0;exitPerimeter=0;" parent="1" source="Wy4BCRka2XQ0IbTexJsx-1" target="Wy4BCRka2XQ0IbTexJsx-26" edge="1">
          <mxGeometry width="50" height="50" relative="1" as="geometry">
            <mxPoint x="410" y="530" as="sourcePoint" />
            <mxPoint x="410" y="490" as="targetPoint" />
          </mxGeometry>
        </mxCell>
        <mxCell id="Wy4BCRka2XQ0IbTexJsx-34" value="l" style="edgeLabel;html=1;align=center;verticalAlign=middle;resizable=0;points=[];" parent="Wy4BCRka2XQ0IbTexJsx-33" vertex="1" connectable="0">
          <mxGeometry x="0.1595" y="-1" relative="1" as="geometry">
            <mxPoint x="-1" y="3" as="offset" />
          </mxGeometry>
        </mxCell>
        <mxCell id="Wy4BCRka2XQ0IbTexJsx-68" value="" style="endArrow=classic;html=1;rounded=0;exitX=1;exitY=0.75;exitDx=0;exitDy=0;entryX=0.05;entryY=0.235;entryDx=0;entryDy=0;entryPerimeter=0;strokeColor=#696969;exitPerimeter=0;" parent="1" source="Wy4BCRka2XQ0IbTexJsx-26" target="Wy4BCRka2XQ0IbTexJsx-1" edge="1">
          <mxGeometry width="50" height="50" relative="1" as="geometry">
            <mxPoint x="150" y="500" as="sourcePoint" />
            <mxPoint x="262" y="525" as="targetPoint" />
          </mxGeometry>
        </mxCell>
        <mxCell id="Wy4BCRka2XQ0IbTexJsx-69" value="esc" style="edgeLabel;html=1;align=center;verticalAlign=middle;resizable=0;points=[];fontColor=#696969;" parent="Wy4BCRka2XQ0IbTexJsx-68" vertex="1" connectable="0">
          <mxGeometry x="0.1524" relative="1" as="geometry">
            <mxPoint y="-7" as="offset" />
          </mxGeometry>
        </mxCell>
        <mxCell id="Wy4BCRka2XQ0IbTexJsx-70" value="" style="endArrow=classic;html=1;rounded=0;entryX=0.432;entryY=-0.008;entryDx=0;entryDy=0;entryPerimeter=0;strokeColor=#696969;exitX=0.781;exitY=0.9;exitDx=0;exitDy=0;exitPerimeter=0;" parent="1" source="Wy4BCRka2XQ0IbTexJsx-28" target="Wy4BCRka2XQ0IbTexJsx-1" edge="1">
          <mxGeometry width="50" height="50" relative="1" as="geometry">
            <mxPoint x="220" y="480" as="sourcePoint" />
            <mxPoint x="214" y="549" as="targetPoint" />
          </mxGeometry>
        </mxCell>
        <mxCell id="Wy4BCRka2XQ0IbTexJsx-71" value="esc" style="edgeLabel;html=1;align=center;verticalAlign=middle;resizable=0;points=[];fontColor=#696969;" parent="Wy4BCRka2XQ0IbTexJsx-70" vertex="1" connectable="0">
          <mxGeometry x="0.1524" relative="1" as="geometry">
            <mxPoint y="-7" as="offset" />
          </mxGeometry>
        </mxCell>
        <mxCell id="Wy4BCRka2XQ0IbTexJsx-72" value="" style="endArrow=classic;html=1;rounded=0;exitX=0.964;exitY=0.233;exitDx=0;exitDy=0;entryX=0.013;entryY=0.634;entryDx=0;entryDy=0;entryPerimeter=0;strokeColor=#696969;exitPerimeter=0;" parent="1" source="Wy4BCRka2XQ0IbTexJsx-11" target="Wy4BCRka2XQ0IbTexJsx-1" edge="1">
          <mxGeometry width="50" height="50" relative="1" as="geometry">
            <mxPoint x="160" y="510" as="sourcePoint" />
            <mxPoint x="214" y="549" as="targetPoint" />
          </mxGeometry>
        </mxCell>
        <mxCell id="Wy4BCRka2XQ0IbTexJsx-73" value="esc" style="edgeLabel;html=1;align=center;verticalAlign=middle;resizable=0;points=[];fontColor=#696969;" parent="Wy4BCRka2XQ0IbTexJsx-72" vertex="1" connectable="0">
          <mxGeometry x="0.1524" relative="1" as="geometry">
            <mxPoint x="-2" y="-1" as="offset" />
          </mxGeometry>
        </mxCell>
        <mxCell id="Wy4BCRka2XQ0IbTexJsx-74" value="" style="endArrow=classic;html=1;rounded=0;exitX=0.929;exitY=0.206;exitDx=0;exitDy=0;entryX=0;entryY=1;entryDx=0;entryDy=0;strokeColor=#696969;exitPerimeter=0;" parent="1" source="Wy4BCRka2XQ0IbTexJsx-14" target="Wy4BCRka2XQ0IbTexJsx-1" edge="1">
          <mxGeometry width="50" height="50" relative="1" as="geometry">
            <mxPoint x="119" y="589" as="sourcePoint" />
            <mxPoint x="211" y="581" as="targetPoint" />
          </mxGeometry>
        </mxCell>
        <mxCell id="Wy4BCRka2XQ0IbTexJsx-75" value="esc" style="edgeLabel;html=1;align=center;verticalAlign=middle;resizable=0;points=[];fontColor=#696969;" parent="Wy4BCRka2XQ0IbTexJsx-74" vertex="1" connectable="0">
          <mxGeometry x="0.1524" relative="1" as="geometry">
            <mxPoint x="-2" y="-1" as="offset" />
          </mxGeometry>
        </mxCell>
        <mxCell id="Wy4BCRka2XQ0IbTexJsx-76" value="" style="endArrow=classic;html=1;rounded=0;entryX=0.378;entryY=0.992;entryDx=0;entryDy=0;strokeColor=#696969;entryPerimeter=0;" parent="1" target="Wy4BCRka2XQ0IbTexJsx-1" edge="1">
          <mxGeometry width="50" height="50" relative="1" as="geometry">
            <mxPoint x="211" y="661" as="sourcePoint" />
            <mxPoint x="222" y="598" as="targetPoint" />
          </mxGeometry>
        </mxCell>
        <mxCell id="Wy4BCRka2XQ0IbTexJsx-77" value="esc" style="edgeLabel;html=1;align=center;verticalAlign=middle;resizable=0;points=[];fontColor=#696969;" parent="Wy4BCRka2XQ0IbTexJsx-76" vertex="1" connectable="0">
          <mxGeometry x="0.1524" relative="1" as="geometry">
            <mxPoint x="-4" y="18" as="offset" />
          </mxGeometry>
        </mxCell>
        <mxCell id="CQLvAE1P5MdfiDLtQm7z-13" value="default" style="ellipse;whiteSpace=wrap;html=1;aspect=fixed;fillColor=#C0FCC6;" parent="1" vertex="1">
          <mxGeometry x="158" y="881" width="80" height="80" as="geometry" />
        </mxCell>
        <mxCell id="CQLvAE1P5MdfiDLtQm7z-14" value="selected" style="ellipse;whiteSpace=wrap;html=1;aspect=fixed;" parent="1" vertex="1">
          <mxGeometry x="372" y="881" width="80" height="80" as="geometry" />
        </mxCell>
        <mxCell id="CQLvAE1P5MdfiDLtQm7z-15" value="" style="endArrow=classic;html=1;rounded=0;exitX=1.001;exitY=0.631;exitDx=0;exitDy=0;entryX=0.014;entryY=0.637;entryDx=0;entryDy=0;exitPerimeter=0;entryPerimeter=0;" parent="1" source="CQLvAE1P5MdfiDLtQm7z-13" target="CQLvAE1P5MdfiDLtQm7z-14" edge="1">
          <mxGeometry width="50" height="50" relative="1" as="geometry">
            <mxPoint x="78" y="931" as="sourcePoint" />
            <mxPoint x="168" y="931" as="targetPoint" />
          </mxGeometry>
        </mxCell>
        <mxCell id="CQLvAE1P5MdfiDLtQm7z-16" value="click" style="edgeLabel;html=1;align=center;verticalAlign=middle;resizable=0;points=[];" parent="CQLvAE1P5MdfiDLtQm7z-15" vertex="1" connectable="0">
          <mxGeometry x="0.1524" relative="1" as="geometry">
            <mxPoint x="-37" y="1" as="offset" />
          </mxGeometry>
        </mxCell>
        <mxCell id="CQLvAE1P5MdfiDLtQm7z-17" value="" style="endArrow=classic;html=1;rounded=0;exitX=1;exitY=0.5;exitDx=0;exitDy=0;entryX=0.5;entryY=1;entryDx=0;entryDy=0;" parent="1" source="CQLvAE1P5MdfiDLtQm7z-19" target="CQLvAE1P5MdfiDLtQm7z-39" edge="1">
          <mxGeometry width="50" height="50" relative="1" as="geometry">
            <mxPoint x="248" y="931" as="sourcePoint" />
            <mxPoint x="414" y="814" as="targetPoint" />
          </mxGeometry>
        </mxCell>
        <mxCell id="CQLvAE1P5MdfiDLtQm7z-18" value="a" style="edgeLabel;html=1;align=center;verticalAlign=middle;resizable=0;points=[];" parent="CQLvAE1P5MdfiDLtQm7z-17" vertex="1" connectable="0">
          <mxGeometry x="0.1595" y="-1" relative="1" as="geometry">
            <mxPoint x="-6" y="-1" as="offset" />
          </mxGeometry>
        </mxCell>
        <mxCell id="CQLvAE1P5MdfiDLtQm7z-19" value="extend line" style="ellipse;whiteSpace=wrap;html=1;aspect=fixed;fontSize=10;" parent="1" vertex="1">
          <mxGeometry x="288" y="843" width="40" height="40" as="geometry" />
        </mxCell>
        <mxCell id="CQLvAE1P5MdfiDLtQm7z-20" value="" style="endArrow=classic;html=1;rounded=0;exitX=0;exitY=1;exitDx=0;exitDy=0;entryX=1;entryY=0;entryDx=0;entryDy=0;" parent="1" source="CQLvAE1P5MdfiDLtQm7z-39" target="CQLvAE1P5MdfiDLtQm7z-19" edge="1">
          <mxGeometry width="50" height="50" relative="1" as="geometry">
            <mxPoint x="368" y="971" as="sourcePoint" />
            <mxPoint x="368" y="1031" as="targetPoint" />
          </mxGeometry>
        </mxCell>
        <mxCell id="CQLvAE1P5MdfiDLtQm7z-21" value="l" style="edgeLabel;html=1;align=center;verticalAlign=middle;resizable=0;points=[];" parent="CQLvAE1P5MdfiDLtQm7z-20" vertex="1" connectable="0">
          <mxGeometry x="0.1595" y="-1" relative="1" as="geometry">
            <mxPoint x="-3" y="1" as="offset" />
          </mxGeometry>
        </mxCell>
        <mxCell id="CQLvAE1P5MdfiDLtQm7z-22" value="" style="endArrow=classic;html=1;rounded=0;exitX=1;exitY=0;exitDx=0;exitDy=0;entryX=0.038;entryY=0.241;entryDx=0;entryDy=0;entryPerimeter=0;" parent="1" source="CQLvAE1P5MdfiDLtQm7z-44" target="CQLvAE1P5MdfiDLtQm7z-39" edge="1">
          <mxGeometry width="50" height="50" relative="1" as="geometry">
            <mxPoint x="354" y="1037" as="sourcePoint" />
            <mxPoint x="236" y="959" as="targetPoint" />
          </mxGeometry>
        </mxCell>
        <mxCell id="CQLvAE1P5MdfiDLtQm7z-23" value="click" style="edgeLabel;html=1;align=center;verticalAlign=middle;resizable=0;points=[];" parent="CQLvAE1P5MdfiDLtQm7z-22" vertex="1" connectable="0">
          <mxGeometry x="0.1524" relative="1" as="geometry">
            <mxPoint x="-7" y="-1" as="offset" />
          </mxGeometry>
        </mxCell>
        <mxCell id="CQLvAE1P5MdfiDLtQm7z-26" value="" style="endArrow=classic;html=1;rounded=0;exitX=0;exitY=0.526;exitDx=0;exitDy=0;entryX=1.015;entryY=0.526;entryDx=0;entryDy=0;entryPerimeter=0;exitPerimeter=0;strokeColor=#696969;" parent="1" source="CQLvAE1P5MdfiDLtQm7z-14" target="CQLvAE1P5MdfiDLtQm7z-13" edge="1">
          <mxGeometry width="50" height="50" relative="1" as="geometry">
            <mxPoint x="373.9200000000001" y="931.1999999999999" as="sourcePoint" />
            <mxPoint x="236" y="930" as="targetPoint" />
          </mxGeometry>
        </mxCell>
        <mxCell id="CQLvAE1P5MdfiDLtQm7z-27" value="esc" style="edgeLabel;html=1;align=center;verticalAlign=middle;resizable=0;points=[];fontColor=#696969;" parent="CQLvAE1P5MdfiDLtQm7z-26" vertex="1" connectable="0">
          <mxGeometry x="0.1524" relative="1" as="geometry">
            <mxPoint x="33" y="-2" as="offset" />
          </mxGeometry>
        </mxCell>
        <mxCell id="CQLvAE1P5MdfiDLtQm7z-28" value="" style="endArrow=classic;html=1;rounded=0;exitX=1;exitY=1;exitDx=0;exitDy=0;entryX=-0.041;entryY=0.366;entryDx=0;entryDy=0;entryPerimeter=0;" parent="1" source="CQLvAE1P5MdfiDLtQm7z-13" target="CQLvAE1P5MdfiDLtQm7z-30" edge="1">
          <mxGeometry width="50" height="50" relative="1" as="geometry">
            <mxPoint x="508" y="931" as="sourcePoint" />
            <mxPoint x="448" y="921" as="targetPoint" />
          </mxGeometry>
        </mxCell>
        <mxCell id="CQLvAE1P5MdfiDLtQm7z-29" value="c" style="edgeLabel;html=1;align=center;verticalAlign=middle;resizable=0;points=[];labelBorderColor=none;spacingRight=0;" parent="CQLvAE1P5MdfiDLtQm7z-28" vertex="1" connectable="0">
          <mxGeometry x="0.1524" relative="1" as="geometry">
            <mxPoint x="1" as="offset" />
          </mxGeometry>
        </mxCell>
        <mxCell id="CQLvAE1P5MdfiDLtQm7z-30" value="connect 1" style="ellipse;whiteSpace=wrap;html=1;aspect=fixed;fontSize=10;" parent="1" vertex="1">
          <mxGeometry x="271" y="971" width="40" height="40" as="geometry" />
        </mxCell>
        <mxCell id="CQLvAE1P5MdfiDLtQm7z-31" value="" style="endArrow=classic;html=1;rounded=0;exitX=0;exitY=1;exitDx=0;exitDy=0;entryX=0.735;entryY=0.034;entryDx=0;entryDy=0;entryPerimeter=0;" parent="1" source="CQLvAE1P5MdfiDLtQm7z-30" target="CQLvAE1P5MdfiDLtQm7z-49" edge="1">
          <mxGeometry width="50" height="50" relative="1" as="geometry">
            <mxPoint x="278" y="961" as="sourcePoint" />
            <mxPoint x="281" y="1097" as="targetPoint" />
          </mxGeometry>
        </mxCell>
        <mxCell id="CQLvAE1P5MdfiDLtQm7z-32" value="click" style="edgeLabel;html=1;align=center;verticalAlign=middle;resizable=0;points=[];" parent="CQLvAE1P5MdfiDLtQm7z-31" vertex="1" connectable="0">
          <mxGeometry x="0.1524" relative="1" as="geometry">
            <mxPoint x="5" y="-4" as="offset" />
          </mxGeometry>
        </mxCell>
        <mxCell id="CQLvAE1P5MdfiDLtQm7z-33" value="" style="endArrow=classic;html=1;rounded=0;exitX=0.063;exitY=0.252;exitDx=0;exitDy=0;exitPerimeter=0;" parent="1" edge="1">
          <mxGeometry width="50" height="50" relative="1" as="geometry">
            <mxPoint x="372.03999999999996" y="913.1600000000001" as="sourcePoint" />
            <mxPoint x="241" y="913" as="targetPoint" />
          </mxGeometry>
        </mxCell>
        <mxCell id="CQLvAE1P5MdfiDLtQm7z-34" value="delete" style="edgeLabel;html=1;align=center;verticalAlign=middle;resizable=0;points=[];" parent="CQLvAE1P5MdfiDLtQm7z-33" vertex="1" connectable="0">
          <mxGeometry x="0.1524" relative="1" as="geometry">
            <mxPoint x="-4" as="offset" />
          </mxGeometry>
        </mxCell>
        <mxCell id="CQLvAE1P5MdfiDLtQm7z-35" value="" style="endArrow=classic;html=1;rounded=0;exitX=0;exitY=0;exitDx=0;exitDy=0;entryX=0.987;entryY=0.739;entryDx=0;entryDy=0;entryPerimeter=0;strokeColor=#696969;" parent="1" source="CQLvAE1P5MdfiDLtQm7z-30" target="CQLvAE1P5MdfiDLtQm7z-13" edge="1">
          <mxGeometry width="50" height="50" relative="1" as="geometry">
            <mxPoint x="384" y="946" as="sourcePoint" />
            <mxPoint x="246" y="945" as="targetPoint" />
          </mxGeometry>
        </mxCell>
        <mxCell id="CQLvAE1P5MdfiDLtQm7z-36" value="esc" style="edgeLabel;html=1;align=center;verticalAlign=middle;resizable=0;points=[];fontColor=#696969;" parent="CQLvAE1P5MdfiDLtQm7z-35" vertex="1" connectable="0">
          <mxGeometry x="0.1524" relative="1" as="geometry">
            <mxPoint x="3" as="offset" />
          </mxGeometry>
        </mxCell>
        <mxCell id="CQLvAE1P5MdfiDLtQm7z-37" value="" style="endArrow=classic;html=1;rounded=0;exitX=0;exitY=0.5;exitDx=0;exitDy=0;entryX=0.832;entryY=0.084;entryDx=0;entryDy=0;entryPerimeter=0;strokeColor=#696969;" parent="1" source="CQLvAE1P5MdfiDLtQm7z-19" target="CQLvAE1P5MdfiDLtQm7z-13" edge="1">
          <mxGeometry width="50" height="50" relative="1" as="geometry">
            <mxPoint x="384" y="946" as="sourcePoint" />
            <mxPoint x="246" y="945" as="targetPoint" />
          </mxGeometry>
        </mxCell>
        <mxCell id="CQLvAE1P5MdfiDLtQm7z-38" value="esc" style="edgeLabel;html=1;align=center;verticalAlign=middle;resizable=0;points=[];fontColor=#696969;" parent="CQLvAE1P5MdfiDLtQm7z-37" vertex="1" connectable="0">
          <mxGeometry x="0.1524" relative="1" as="geometry">
            <mxPoint x="6" as="offset" />
          </mxGeometry>
        </mxCell>
        <mxCell id="CQLvAE1P5MdfiDLtQm7z-39" value="extend arc" style="ellipse;whiteSpace=wrap;html=1;aspect=fixed;fontSize=10;" parent="1" vertex="1">
          <mxGeometry x="351" y="755" width="40" height="40" as="geometry" />
        </mxCell>
        <mxCell id="CQLvAE1P5MdfiDLtQm7z-40" value="" style="endArrow=classic;html=1;rounded=0;entryX=0.709;entryY=0.066;entryDx=0;entryDy=0;entryPerimeter=0;exitX=0.779;exitY=1.034;exitDx=0;exitDy=0;exitPerimeter=0;" parent="1" source="CQLvAE1P5MdfiDLtQm7z-39" target="CQLvAE1P5MdfiDLtQm7z-14" edge="1">
          <mxGeometry width="50" height="50" relative="1" as="geometry">
            <mxPoint x="418.00213562373096" y="808.0021356237311" as="sourcePoint" />
            <mxPoint x="424.6600000000001" y="884.1399999999998" as="targetPoint" />
          </mxGeometry>
        </mxCell>
        <mxCell id="CQLvAE1P5MdfiDLtQm7z-41" value="click" style="edgeLabel;html=1;align=center;verticalAlign=middle;resizable=0;points=[];" parent="CQLvAE1P5MdfiDLtQm7z-40" vertex="1" connectable="0">
          <mxGeometry x="0.1524" relative="1" as="geometry">
            <mxPoint x="3" y="-15" as="offset" />
          </mxGeometry>
        </mxCell>
        <mxCell id="CQLvAE1P5MdfiDLtQm7z-42" value="" style="endArrow=classic;html=1;rounded=0;exitX=-0.006;exitY=0.628;exitDx=0;exitDy=0;strokeColor=#696969;exitPerimeter=0;" parent="1" source="CQLvAE1P5MdfiDLtQm7z-39" edge="1">
          <mxGeometry width="50" height="50" relative="1" as="geometry">
            <mxPoint x="327" y="969" as="sourcePoint" />
            <mxPoint x="225" y="884" as="targetPoint" />
          </mxGeometry>
        </mxCell>
        <mxCell id="CQLvAE1P5MdfiDLtQm7z-43" value="esc" style="edgeLabel;html=1;align=center;verticalAlign=middle;resizable=0;points=[];fontColor=#696969;" parent="CQLvAE1P5MdfiDLtQm7z-42" vertex="1" connectable="0">
          <mxGeometry x="0.1524" relative="1" as="geometry">
            <mxPoint x="-8" y="1" as="offset" />
          </mxGeometry>
        </mxCell>
        <mxCell id="CQLvAE1P5MdfiDLtQm7z-44" value="extend" style="ellipse;whiteSpace=wrap;html=1;aspect=fixed;fontSize=10;" parent="1" vertex="1">
          <mxGeometry x="252" y="768" width="40" height="40" as="geometry" />
        </mxCell>
        <mxCell id="CQLvAE1P5MdfiDLtQm7z-45" value="" style="endArrow=classic;html=1;rounded=0;exitX=0.711;exitY=0.006;exitDx=0;exitDy=0;entryX=0.044;entryY=0.776;entryDx=0;entryDy=0;entryPerimeter=0;exitPerimeter=0;" parent="1" source="CQLvAE1P5MdfiDLtQm7z-13" target="CQLvAE1P5MdfiDLtQm7z-44" edge="1">
          <mxGeometry width="50" height="50" relative="1" as="geometry">
            <mxPoint x="334" y="736" as="sourcePoint" />
            <mxPoint x="236" y="903" as="targetPoint" />
          </mxGeometry>
        </mxCell>
        <mxCell id="CQLvAE1P5MdfiDLtQm7z-46" value="e" style="edgeLabel;html=1;align=center;verticalAlign=middle;resizable=0;points=[];" parent="CQLvAE1P5MdfiDLtQm7z-45" vertex="1" connectable="0">
          <mxGeometry x="0.1524" relative="1" as="geometry">
            <mxPoint x="-6" y="2" as="offset" />
          </mxGeometry>
        </mxCell>
        <mxCell id="CQLvAE1P5MdfiDLtQm7z-47" value="" style="endArrow=classic;html=1;rounded=0;exitX=1;exitY=1;exitDx=0;exitDy=0;entryX=0.226;entryY=0.084;entryDx=0;entryDy=0;entryPerimeter=0;" parent="1" source="CQLvAE1P5MdfiDLtQm7z-19" target="CQLvAE1P5MdfiDLtQm7z-14" edge="1">
          <mxGeometry width="50" height="50" relative="1" as="geometry">
            <mxPoint x="306" y="825" as="sourcePoint" />
            <mxPoint x="339" y="742" as="targetPoint" />
          </mxGeometry>
        </mxCell>
        <mxCell id="CQLvAE1P5MdfiDLtQm7z-48" value="click" style="edgeLabel;html=1;align=center;verticalAlign=middle;resizable=0;points=[];" parent="CQLvAE1P5MdfiDLtQm7z-47" vertex="1" connectable="0">
          <mxGeometry x="0.1524" relative="1" as="geometry">
            <mxPoint x="-15" y="-1" as="offset" />
          </mxGeometry>
        </mxCell>
        <mxCell id="CQLvAE1P5MdfiDLtQm7z-49" value="connect 2" style="ellipse;whiteSpace=wrap;html=1;aspect=fixed;fontSize=10;" parent="1" vertex="1">
          <mxGeometry x="214" y="1032" width="40" height="40" as="geometry" />
        </mxCell>
        <mxCell id="CQLvAE1P5MdfiDLtQm7z-50" value="" style="endArrow=classic;html=1;rounded=0;exitX=0;exitY=0;exitDx=0;exitDy=0;entryX=0.591;entryY=1.023;entryDx=0;entryDy=0;entryPerimeter=0;" parent="1" source="CQLvAE1P5MdfiDLtQm7z-49" target="CQLvAE1P5MdfiDLtQm7z-13" edge="1">
          <mxGeometry width="50" height="50" relative="1" as="geometry">
            <mxPoint x="287" y="1015" as="sourcePoint" />
            <mxPoint x="253" y="1043" as="targetPoint" />
          </mxGeometry>
        </mxCell>
        <mxCell id="CQLvAE1P5MdfiDLtQm7z-51" value="click" style="edgeLabel;html=1;align=center;verticalAlign=middle;resizable=0;points=[];" parent="CQLvAE1P5MdfiDLtQm7z-50" vertex="1" connectable="0">
          <mxGeometry x="0.1524" relative="1" as="geometry">
            <mxPoint x="3" y="20" as="offset" />
          </mxGeometry>
        </mxCell>
        <mxCell id="CQLvAE1P5MdfiDLtQm7z-52" value="" style="endArrow=classic;html=1;rounded=0;exitX=0.5;exitY=0;exitDx=0;exitDy=0;entryX=0.711;entryY=0.972;entryDx=0;entryDy=0;entryPerimeter=0;strokeColor=#696969;" parent="1" source="CQLvAE1P5MdfiDLtQm7z-49" target="CQLvAE1P5MdfiDLtQm7z-13" edge="1">
          <mxGeometry width="50" height="50" relative="1" as="geometry">
            <mxPoint x="287" y="987" as="sourcePoint" />
            <mxPoint x="247" y="950" as="targetPoint" />
          </mxGeometry>
        </mxCell>
        <mxCell id="CQLvAE1P5MdfiDLtQm7z-53" value="esc" style="edgeLabel;html=1;align=center;verticalAlign=middle;resizable=0;points=[];fontColor=#696969;" parent="CQLvAE1P5MdfiDLtQm7z-52" vertex="1" connectable="0">
          <mxGeometry x="0.1524" relative="1" as="geometry">
            <mxPoint x="3" as="offset" />
          </mxGeometry>
        </mxCell>
        <mxCell id="CQLvAE1P5MdfiDLtQm7z-54" value="" style="endArrow=classic;html=1;rounded=0;exitX=0.21;exitY=0.975;exitDx=0;exitDy=0;entryX=0.78;entryY=0.066;entryDx=0;entryDy=0;strokeColor=#696969;entryPerimeter=0;exitPerimeter=0;" parent="1" source="CQLvAE1P5MdfiDLtQm7z-44" target="CQLvAE1P5MdfiDLtQm7z-13" edge="1">
          <mxGeometry width="50" height="50" relative="1" as="geometry">
            <mxPoint x="361" y="790" as="sourcePoint" />
            <mxPoint x="230" y="894" as="targetPoint" />
          </mxGeometry>
        </mxCell>
        <mxCell id="CQLvAE1P5MdfiDLtQm7z-55" value="esc" style="edgeLabel;html=1;align=center;verticalAlign=middle;resizable=0;points=[];fontColor=#696969;" parent="CQLvAE1P5MdfiDLtQm7z-54" vertex="1" connectable="0">
          <mxGeometry x="0.1524" relative="1" as="geometry">
            <mxPoint x="-8" y="1" as="offset" />
          </mxGeometry>
        </mxCell>
        <mxCell id="CQLvAE1P5MdfiDLtQm7z-56" value="junction" style="ellipse;whiteSpace=wrap;html=1;aspect=fixed;fillColor=#ffe6cc;strokeColor=#d79b00;" parent="1" vertex="1">
          <mxGeometry x="305" y="453" width="80" height="80" as="geometry" />
        </mxCell>
        <mxCell id="CQLvAE1P5MdfiDLtQm7z-57" value="" style="endArrow=classic;html=1;rounded=0;exitX=1;exitY=1;exitDx=0;exitDy=0;entryX=-0.041;entryY=0.366;entryDx=0;entryDy=0;entryPerimeter=0;" parent="1" source="CQLvAE1P5MdfiDLtQm7z-56" target="CQLvAE1P5MdfiDLtQm7z-59" edge="1">
          <mxGeometry width="50" height="50" relative="1" as="geometry">
            <mxPoint x="655" y="503" as="sourcePoint" />
            <mxPoint x="595" y="493" as="targetPoint" />
          </mxGeometry>
        </mxCell>
        <mxCell id="CQLvAE1P5MdfiDLtQm7z-58" value="l" style="edgeLabel;html=1;align=center;verticalAlign=middle;resizable=0;points=[];labelBorderColor=none;spacingRight=0;" parent="CQLvAE1P5MdfiDLtQm7z-57" vertex="1" connectable="0">
          <mxGeometry x="0.1524" relative="1" as="geometry">
            <mxPoint x="1" as="offset" />
          </mxGeometry>
        </mxCell>
        <mxCell id="CQLvAE1P5MdfiDLtQm7z-59" value="link 1" style="ellipse;whiteSpace=wrap;html=1;aspect=fixed;fontSize=10;" parent="1" vertex="1">
          <mxGeometry x="418" y="543" width="40" height="40" as="geometry" />
        </mxCell>
        <mxCell id="CQLvAE1P5MdfiDLtQm7z-60" value="" style="endArrow=classic;html=1;rounded=0;exitX=0;exitY=1;exitDx=0;exitDy=0;entryX=0.735;entryY=0.034;entryDx=0;entryDy=0;entryPerimeter=0;" parent="1" source="CQLvAE1P5MdfiDLtQm7z-59" target="CQLvAE1P5MdfiDLtQm7z-64" edge="1">
          <mxGeometry width="50" height="50" relative="1" as="geometry">
            <mxPoint x="425" y="533" as="sourcePoint" />
            <mxPoint x="428" y="669" as="targetPoint" />
          </mxGeometry>
        </mxCell>
        <mxCell id="CQLvAE1P5MdfiDLtQm7z-61" value="click" style="edgeLabel;html=1;align=center;verticalAlign=middle;resizable=0;points=[];" parent="CQLvAE1P5MdfiDLtQm7z-60" vertex="1" connectable="0">
          <mxGeometry x="0.1524" relative="1" as="geometry">
            <mxPoint x="5" y="-4" as="offset" />
          </mxGeometry>
        </mxCell>
        <mxCell id="CQLvAE1P5MdfiDLtQm7z-62" value="" style="endArrow=classic;html=1;rounded=0;exitX=0;exitY=0;exitDx=0;exitDy=0;entryX=0.987;entryY=0.739;entryDx=0;entryDy=0;entryPerimeter=0;strokeColor=#696969;" parent="1" source="CQLvAE1P5MdfiDLtQm7z-59" target="CQLvAE1P5MdfiDLtQm7z-56" edge="1">
          <mxGeometry width="50" height="50" relative="1" as="geometry">
            <mxPoint x="531" y="518" as="sourcePoint" />
            <mxPoint x="393" y="517" as="targetPoint" />
          </mxGeometry>
        </mxCell>
        <mxCell id="CQLvAE1P5MdfiDLtQm7z-63" value="esc" style="edgeLabel;html=1;align=center;verticalAlign=middle;resizable=0;points=[];fontColor=#696969;" parent="CQLvAE1P5MdfiDLtQm7z-62" vertex="1" connectable="0">
          <mxGeometry x="0.1524" relative="1" as="geometry">
            <mxPoint x="3" as="offset" />
          </mxGeometry>
        </mxCell>
        <mxCell id="CQLvAE1P5MdfiDLtQm7z-64" value="link 2" style="ellipse;whiteSpace=wrap;html=1;aspect=fixed;fontSize=10;" parent="1" vertex="1">
          <mxGeometry x="361" y="604" width="40" height="40" as="geometry" />
        </mxCell>
        <mxCell id="CQLvAE1P5MdfiDLtQm7z-65" value="" style="endArrow=classic;html=1;rounded=0;exitX=0;exitY=0;exitDx=0;exitDy=0;entryX=0.591;entryY=1.023;entryDx=0;entryDy=0;entryPerimeter=0;" parent="1" source="CQLvAE1P5MdfiDLtQm7z-64" target="CQLvAE1P5MdfiDLtQm7z-56" edge="1">
          <mxGeometry width="50" height="50" relative="1" as="geometry">
            <mxPoint x="434" y="587" as="sourcePoint" />
            <mxPoint x="400" y="615" as="targetPoint" />
          </mxGeometry>
        </mxCell>
        <mxCell id="CQLvAE1P5MdfiDLtQm7z-66" value="click" style="edgeLabel;html=1;align=center;verticalAlign=middle;resizable=0;points=[];" parent="CQLvAE1P5MdfiDLtQm7z-65" vertex="1" connectable="0">
          <mxGeometry x="0.1524" relative="1" as="geometry">
            <mxPoint x="3" y="20" as="offset" />
          </mxGeometry>
        </mxCell>
        <mxCell id="CQLvAE1P5MdfiDLtQm7z-67" value="" style="endArrow=classic;html=1;rounded=0;exitX=0.5;exitY=0;exitDx=0;exitDy=0;entryX=0.711;entryY=0.972;entryDx=0;entryDy=0;entryPerimeter=0;strokeColor=#696969;" parent="1" source="CQLvAE1P5MdfiDLtQm7z-64" target="CQLvAE1P5MdfiDLtQm7z-56" edge="1">
          <mxGeometry width="50" height="50" relative="1" as="geometry">
            <mxPoint x="434" y="559" as="sourcePoint" />
            <mxPoint x="394" y="522" as="targetPoint" />
          </mxGeometry>
        </mxCell>
        <mxCell id="CQLvAE1P5MdfiDLtQm7z-68" value="esc" style="edgeLabel;html=1;align=center;verticalAlign=middle;resizable=0;points=[];fontColor=#696969;" parent="CQLvAE1P5MdfiDLtQm7z-67" vertex="1" connectable="0">
          <mxGeometry x="0.1524" relative="1" as="geometry">
            <mxPoint x="3" as="offset" />
          </mxGeometry>
        </mxCell>
        <mxCell id="23gnhftNtY56dILR7MXB-1" value="" style="endArrow=classic;html=1;rounded=0;entryX=1;entryY=0;entryDx=0;entryDy=0;strokeColor=#696969;" parent="1" source="CQLvAE1P5MdfiDLtQm7z-56" target="Wy4BCRka2XQ0IbTexJsx-1" edge="1">
          <mxGeometry width="50" height="50" relative="1" as="geometry">
            <mxPoint x="160" y="510" as="sourcePoint" />
            <mxPoint x="214" y="549" as="targetPoint" />
          </mxGeometry>
        </mxCell>
        <mxCell id="23gnhftNtY56dILR7MXB-2" value="esc" style="edgeLabel;html=1;align=center;verticalAlign=middle;resizable=0;points=[];fontColor=#696969;" parent="23gnhftNtY56dILR7MXB-1" vertex="1" connectable="0">
          <mxGeometry x="0.1524" relative="1" as="geometry">
            <mxPoint y="-7" as="offset" />
          </mxGeometry>
        </mxCell>
        <mxCell id="23gnhftNtY56dILR7MXB-3" value="" style="endArrow=classic;html=1;rounded=0;entryX=0;entryY=1;entryDx=0;entryDy=0;" parent="1" source="Wy4BCRka2XQ0IbTexJsx-1" target="CQLvAE1P5MdfiDLtQm7z-56" edge="1">
          <mxGeometry width="50" height="50" relative="1" as="geometry">
            <mxPoint x="383" y="531" as="sourcePoint" />
            <mxPoint x="426" y="568" as="targetPoint" />
          </mxGeometry>
        </mxCell>
        <mxCell id="23gnhftNtY56dILR7MXB-4" value="j" style="edgeLabel;html=1;align=center;verticalAlign=middle;resizable=0;points=[];labelBorderColor=none;spacingRight=0;" parent="23gnhftNtY56dILR7MXB-3" vertex="1" connectable="0">
          <mxGeometry x="0.1524" relative="1" as="geometry">
            <mxPoint x="1" as="offset" />
          </mxGeometry>
        </mxCell>
        <mxCell id="eVd8qrwnKh0IvjzSfpG4-1" value="" style="curved=1;endArrow=classic;html=1;rounded=0;exitX=0;exitY=1;exitDx=0;exitDy=0;entryX=0.5;entryY=1;entryDx=0;entryDy=0;" parent="1" source="CQLvAE1P5MdfiDLtQm7z-14" target="CQLvAE1P5MdfiDLtQm7z-14" edge="1">
          <mxGeometry width="50" height="50" relative="1" as="geometry">
            <mxPoint x="435" y="1035" as="sourcePoint" />
            <mxPoint x="485" y="985" as="targetPoint" />
            <Array as="points">
              <mxPoint x="377" y="972" />
              <mxPoint x="400" y="981" />
            </Array>
          </mxGeometry>
        </mxCell>
        <mxCell id="eVd8qrwnKh0IvjzSfpG4-2" value="m" style="edgeLabel;html=1;align=center;verticalAlign=middle;resizable=0;points=[];" parent="eVd8qrwnKh0IvjzSfpG4-1" vertex="1" connectable="0">
          <mxGeometry x="-0.1806" y="-1" relative="1" as="geometry">
            <mxPoint as="offset" />
          </mxGeometry>
        </mxCell>
        <mxCell id="RYes4NquEuqhNPYM1jLE-1" value="refline" style="ellipse;whiteSpace=wrap;html=1;aspect=fixed;fontSize=10;" vertex="1" parent="1">
          <mxGeometry x="122" y="804" width="40" height="40" as="geometry" />
        </mxCell>
        <mxCell id="RYes4NquEuqhNPYM1jLE-2" value="" style="endArrow=classic;html=1;rounded=0;exitX=0.198;exitY=0.061;exitDx=0;exitDy=0;entryX=0.5;entryY=1;entryDx=0;entryDy=0;exitPerimeter=0;" edge="1" parent="1" target="RYes4NquEuqhNPYM1jLE-1" source="CQLvAE1P5MdfiDLtQm7z-13">
          <mxGeometry width="50" height="50" relative="1" as="geometry">
            <mxPoint x="85" y="917" as="sourcePoint" />
            <mxPoint x="106" y="939" as="targetPoint" />
          </mxGeometry>
        </mxCell>
        <mxCell id="RYes4NquEuqhNPYM1jLE-3" value="r" style="edgeLabel;html=1;align=center;verticalAlign=middle;resizable=0;points=[];" vertex="1" connectable="0" parent="RYes4NquEuqhNPYM1jLE-2">
          <mxGeometry x="0.1524" relative="1" as="geometry">
            <mxPoint x="-6" y="2" as="offset" />
          </mxGeometry>
        </mxCell>
        <mxCell id="RYes4NquEuqhNPYM1jLE-4" value="" style="endArrow=classic;html=1;rounded=0;exitX=1;exitY=1;exitDx=0;exitDy=0;entryX=0.448;entryY=-0.004;entryDx=0;entryDy=0;strokeColor=#696969;entryPerimeter=0;" edge="1" parent="1" source="RYes4NquEuqhNPYM1jLE-1" target="CQLvAE1P5MdfiDLtQm7z-13">
          <mxGeometry width="50" height="50" relative="1" as="geometry">
            <mxPoint x="231" y="826" as="sourcePoint" />
            <mxPoint x="90" y="922" as="targetPoint" />
          </mxGeometry>
        </mxCell>
        <mxCell id="RYes4NquEuqhNPYM1jLE-5" value="esc" style="edgeLabel;html=1;align=center;verticalAlign=middle;resizable=0;points=[];fontColor=#696969;" vertex="1" connectable="0" parent="RYes4NquEuqhNPYM1jLE-4">
          <mxGeometry x="0.1524" relative="1" as="geometry">
            <mxPoint x="-8" y="1" as="offset" />
          </mxGeometry>
        </mxCell>
        <mxCell id="RYes4NquEuqhNPYM1jLE-6" value="" style="curved=1;endArrow=classic;html=1;rounded=0;exitX=0.923;exitY=0.189;exitDx=0;exitDy=0;exitPerimeter=0;entryX=1.038;entryY=0.561;entryDx=0;entryDy=0;entryPerimeter=0;" edge="1" parent="1" source="CQLvAE1P5MdfiDLtQm7z-14" target="CQLvAE1P5MdfiDLtQm7z-14">
          <mxGeometry width="50" height="50" relative="1" as="geometry">
            <mxPoint x="493" y="894" as="sourcePoint" />
            <mxPoint x="524" y="887" as="targetPoint" />
            <Array as="points">
              <mxPoint x="469" y="876" />
              <mxPoint x="482" y="906" />
            </Array>
          </mxGeometry>
        </mxCell>
        <mxCell id="RYes4NquEuqhNPYM1jLE-7" value="click&lt;br&gt;(change pred/succ)&lt;br&gt;(add/del lane)&lt;br&gt;(add/del poly3 laneoffset)&lt;br&gt;(add/del poly3 lanewidths)" style="edgeLabel;html=1;align=center;verticalAlign=middle;resizable=0;points=[];" vertex="1" connectable="0" parent="RYes4NquEuqhNPYM1jLE-6">
          <mxGeometry x="-0.1806" y="-1" relative="1" as="geometry">
            <mxPoint x="60" y="-3" as="offset" />
          </mxGeometry>
        </mxCell>
        <mxCell id="RYes4NquEuqhNPYM1jLE-8" value="link&lt;br&gt;road" style="ellipse;whiteSpace=wrap;html=1;aspect=fixed;fontSize=10;" vertex="1" parent="1">
          <mxGeometry x="498" y="967" width="40" height="40" as="geometry" />
        </mxCell>
        <mxCell id="RYes4NquEuqhNPYM1jLE-9" value="" style="endArrow=classic;html=1;rounded=0;exitX=0.98;exitY=0.625;exitDx=0;exitDy=0;entryX=0.196;entryY=0.043;entryDx=0;entryDy=0;exitPerimeter=0;entryPerimeter=0;" edge="1" parent="1" target="RYes4NquEuqhNPYM1jLE-8" source="CQLvAE1P5MdfiDLtQm7z-14">
          <mxGeometry width="50" height="50" relative="1" as="geometry">
            <mxPoint x="550" y="1049" as="sourcePoint" />
            <mxPoint x="482" y="1102" as="targetPoint" />
          </mxGeometry>
        </mxCell>
        <mxCell id="RYes4NquEuqhNPYM1jLE-10" value="click" style="edgeLabel;html=1;align=center;verticalAlign=middle;resizable=0;points=[];" vertex="1" connectable="0" parent="RYes4NquEuqhNPYM1jLE-9">
          <mxGeometry x="0.1524" relative="1" as="geometry">
            <mxPoint x="-3" y="-3" as="offset" />
          </mxGeometry>
        </mxCell>
        <mxCell id="RYes4NquEuqhNPYM1jLE-11" value="" style="endArrow=classic;html=1;rounded=0;exitX=0.068;exitY=0.243;exitDx=0;exitDy=0;entryX=0.959;entryY=0.746;entryDx=0;entryDy=0;strokeColor=#696969;entryPerimeter=0;exitPerimeter=0;" edge="1" parent="1" source="RYes4NquEuqhNPYM1jLE-8" target="CQLvAE1P5MdfiDLtQm7z-14">
          <mxGeometry width="50" height="50" relative="1" as="geometry">
            <mxPoint x="607" y="989" as="sourcePoint" />
            <mxPoint x="570" y="1044" as="targetPoint" />
            <Array as="points" />
          </mxGeometry>
        </mxCell>
        <mxCell id="RYes4NquEuqhNPYM1jLE-12" value="esc" style="edgeLabel;html=1;align=center;verticalAlign=middle;resizable=0;points=[];fontColor=#696969;" vertex="1" connectable="0" parent="RYes4NquEuqhNPYM1jLE-11">
          <mxGeometry x="0.1524" relative="1" as="geometry">
            <mxPoint x="15" y="11" as="offset" />
          </mxGeometry>
        </mxCell>
        <mxCell id="RYes4NquEuqhNPYM1jLE-13" value="" style="endArrow=classic;html=1;rounded=0;exitX=0;exitY=0.5;exitDx=0;exitDy=0;entryX=1;entryY=1;entryDx=0;entryDy=0;" edge="1" parent="1" source="RYes4NquEuqhNPYM1jLE-8" target="CQLvAE1P5MdfiDLtQm7z-14">
          <mxGeometry width="50" height="50" relative="1" as="geometry">
            <mxPoint x="460" y="941" as="sourcePoint" />
            <mxPoint x="516" y="979" as="targetPoint" />
          </mxGeometry>
        </mxCell>
        <mxCell id="RYes4NquEuqhNPYM1jLE-14" value="click" style="edgeLabel;html=1;align=center;verticalAlign=middle;resizable=0;points=[];" vertex="1" connectable="0" parent="RYes4NquEuqhNPYM1jLE-13">
          <mxGeometry x="0.1524" relative="1" as="geometry">
            <mxPoint x="-3" y="-3" as="offset" />
          </mxGeometry>
        </mxCell>
      </root>
    </mxGraphModel>
  </diagram>
</mxfile>
